<?xml version="1.0" encoding="UTF-8"?>
<svg width="752pt" height="752pt" version="1.1" viewBox="0 0 752 752" xmlns="http://www.w3.org/2000/svg">
 <g>
  <rect width="752" height="752"/>
  <path d="m588.64 366.05-11.84 8.5234-79.09 58.254-12.785 9.4727c0.94531 7.1055 1.4219 14.68 1.4219 21.785 0 3.7891 3.3164 7.1055 7.1055 7.1055l109.87-0.003906c3.7891 0 7.1055-3.3164 7.1055-7.1055 0-35.043-7.5781-68.195-21.785-98.031z" fill="#2a73fc"/>
  <path d="m469.77 392.1 13.262-5.2109 83.824-32.203 13.734-5.2109c-40.254-71.031-116.98-119.81-204.59-119.81-129.29 0-234.42 105.14-234.42 234.42 0 3.7891 3.3164 7.1055 7.1055 7.1055 3.7891 0 7.1055-3.3164 7.1055-7.1055 0-90.926 74.352-165.28 165.28-165.28 65.352 0.003906 121.71 38.363 148.7 93.297z" fill="#2a73fc"/>
  <path d="m407.73 431.41c-1.8945 0.94531-4.7344 0.47266-6.6289-0.47266-8.0508-5.2109-17.523-8.0508-26.992-8.0508-8.0508 0-16.574 1.8945-23.68 6.1562-24.152 13.262-33.152 43.57-19.891 67.723 13.262 24.152 43.57 33.152 67.723 19.891 16.102-8.5234 26.047-25.574 26.047-43.57 0-2.3672 0.94531-4.2617 2.8398-5.6836l121.71-89.508z" fill="#2a73fc"/>
 </g>
</svg>
